# xmcd
#
# Track frame offsets:
#        150
#        13035
#        27654
#        41677
#        56004
#        69264
#        82701
#        97110
#        112402
#        124924
#        138400
#        151872
#        165488
#        179464
#        191961
#        206891
#        220829
#        234752
#        248621
#        261302
#
# Disc length: 3647 seconds
#
# Revision: 0
# Processed by: cddbd v1.5.1PL0 Copyright (c) Steve Scherf et al.
# Submitted via: ExactAudioCopy v0.95b3
#
DISCID=200e3d14
DTITLE=Duke Ellington - The Duke [204139-336] - [204148-302] Scattin'
DTITLE=At The Cotton Club (1936-1937) [CD1)
DYEAR=2004
DGENRE=Pop
TTITLE0=Oh, Babe ! Maybe Someday
TTITLE1=Shoe Shine Boy
TTITLE2=It Was A Sad Night In Harlem
TTITLE3=Trumpet's In Spades (Rex's Concerto)
TTITLE4=Yearning For Love
TTITLE5=In A Jam
TTITLE6=Exposition Swing
TTITLE7=Uptown Downbeat (Black Out)
TTITLE8=Rexatious
TTITLE9=Lazy Man's Shuffle
TTITLE10=Clouds In My Heart
TTITLE11=Frolic Sam
TTITLE12=Caravan
TTITLE13=Stompy Jones
TTITLE14=Scattin' At The Cotton Club
TTITLE15=Black Butterfly
TTITLE16=Mood Indigo - Solitude
TTITLE17=Sophisticated Lady - In A Sentimental Mood
TTITLE18=The New Birmingham Breakdown
TTITLE19=Scattin' At The Kit Kat
EXTD=
EXTT0=
EXTT1=
EXTT2=
EXTT3=
EXTT4=
EXTT5=
EXTT6=
EXTT7=
EXTT8=
EXTT9=
EXTT10=
EXTT11=
EXTT12=
EXTT13=
EXTT14=
EXTT15=
EXTT16=
EXTT17=
EXTT18=
EXTT19=
PLAYORDER=
